<svg xmlns="http://www.w3.org/2000/svg" xmlns:xlink="http://www.w3.org/1999/xlink" width="1680" height="1210" viewBox="0 0 1680 1210" role="img"><title>Background retraining lifecycle — detailed implementation workflow</title><desc>Level 2 · real functions and modules · badges map to the 8 stages in ml-flow-07-retraining-lifecycle-overview.svg</desc><defs><filter id="cardShadow" x="-20%" y="-20%" width="140%" height="150%"><feDropShadow dx="0" dy="1" stdDeviation="1.25" flood-color="#0F172A" flood-opacity="0.07"/></filter><filter id="regionShadow" x="-10%" y="-10%" width="120%" height="120%"><feDropShadow dx="0" dy="1" stdDeviation="1.5" flood-color="#0F172A" flood-opacity="0.04"/></filter><marker id="arrow-frontend" viewBox="0 0 10 10" refX="8.2" refY="5" markerWidth="5.4" markerHeight="5.4" orient="auto-start-reverse"><path d="M 0 1.2 L 8.6 5 L 0 8.8 z" fill="#2563EB"/></marker><marker id="arrow-auth" viewBox="0 0 10 10" refX="8.2" refY="5" markerWidth="5.4" markerHeight="5.4" orient="auto-start-reverse"><path d="M 0 1.2 L 8.6 5 L 0 8.8 z" fill="#D97706"/></marker><marker id="arrow-backend" viewBox="0 0 10 10" refX="8.2" refY="5" markerWidth="5.4" markerHeight="5.4" orient="auto-start-reverse"><path d="M 0 1.2 L 8.6 5 L 0 8.8 z" fill="#7C3AED"/></marker><marker id="arrow-database" viewBox="0 0 10 10" refX="8.2" refY="5" markerWidth="5.4" markerHeight="5.4" orient="auto-start-reverse"><path d="M 0 1.2 L 8.6 5 L 0 8.8 z" fill="#059669"/></marker><marker id="arrow-insights" viewBox="0 0 10 10" refX="8.2" refY="5" markerWidth="5.4" markerHeight="5.4" orient="auto-start-reverse"><path d="M 0 1.2 L 8.6 5 L 0 8.8 z" fill="#0D9488"/></marker><marker id="arrow-response" viewBox="0 0 10 10" refX="8.2" refY="5" markerWidth="5.4" markerHeight="5.4" orient="auto-start-reverse"><path d="M 0 1.2 L 8.6 5 L 0 8.8 z" fill="#0891B2"/></marker><marker id="arrow-ui" viewBox="0 0 10 10" refX="8.2" refY="5" markerWidth="5.4" markerHeight="5.4" orient="auto-start-reverse"><path d="M 0 1.2 L 8.6 5 L 0 8.8 z" fill="#DB2777"/></marker><marker id="arrow-error" viewBox="0 0 10 10" refX="8.2" refY="5" markerWidth="5.4" markerHeight="5.4" orient="auto-start-reverse"><path d="M 0 1.2 L 8.6 5 L 0 8.8 z" fill="#DC2626"/></marker><clipPath id="rgnclip0"><rect x="20.0" y="74.0" width="272.0" height="812.0" rx="14"/></clipPath><clipPath id="rgnclip1"><rect x="306.0" y="74.0" width="460.0" height="812.0" rx="14"/></clipPath><clipPath id="rgnclip2"><rect x="780.0" y="74.0" width="460.0" height="812.0" rx="14"/></clipPath><clipPath id="rgnclip3"><rect x="1254.0" y="74.0" width="406.0" height="812.0" rx="14"/></clipPath></defs><rect width="1680" height="1210" fill="#F1F5F9"/><rect x="0" y="0" width="1680" height="62" fill="#FFFFFF"/><path d="M 0 62 H 1680" stroke="#CBD5E1" stroke-width="1"/><text x="20.0" y="28.0" font-family="Inter, 'Segoe UI', Arial, Helvetica, sans-serif" font-size="19.00" font-weight="700" fill="#0F172A" letter-spacing="-0.20" text-anchor="start" opacity="1.00">Background retraining lifecycle — detailed implementation workflow</text><text x="20.0" y="46.0" font-family="Inter, 'Segoe UI', Arial, Helvetica, sans-serif" font-size="11.50" font-weight="400" fill="#475569" letter-spacing="0.00" text-anchor="start" opacity="1.00">Level 2 · real functions and modules · badges map to the 8 stages in ml-flow-07-retraining-lifecycle-overview.svg</text><text x="1660.0" y="28.0" font-family="Inter, 'Segoe UI', Arial, Helvetica, sans-serif" font-size="10.50" font-weight="500" fill="#64748B" letter-spacing="0.00" text-anchor="end" opacity="1.00">BALENISA · Personal Finance Platform</text><text x="1660.0" y="46.0" font-family="Inter, 'Segoe UI', Arial, Helvetica, sans-serif" font-size="9.50" font-weight="400" fill="#64748B" letter-spacing="0.00" text-anchor="end" opacity="1.00">docs/api-workflows · ML-FLOW-07 · Level 2 detailed</text><rect x="20.0" y="74.0" width="272.0" height="812.0" rx="14" fill="#FFFFFF" stroke="#CBD5E1" stroke-width="1" filter="url(#regionShadow)"/><rect x="20.0" y="74.0" width="272.0" height="52" fill="#7C3AED" fill-opacity="0.07" clip-path="url(#rgnclip0)"/><rect x="20.0" y="74.0" width="272.0" height="4" fill="#7C3AED" clip-path="url(#rgnclip0)"/><rect x="44.0" y="89.0" width="19" height="15" rx="4" fill="#7C3AED"/><text x="53.5" y="100.0" font-family="Inter, 'Segoe UI', Arial, Helvetica, sans-serif" font-size="9.40" font-weight="700" fill="#FFFFFF" letter-spacing="0.30" text-anchor="middle" opacity="1.00">01</text><text x="71.0" y="100.0" font-family="Inter, 'Segoe UI', Arial, Helvetica, sans-serif" font-size="10.50" font-weight="700" fill="#334155" letter-spacing="1.10" text-anchor="start" opacity="1.00">THREAD START</text><text x="44.0" y="117.0" font-family="Inter, 'Segoe UI', Arial, Helvetica, sans-serif" font-size="9.00" font-weight="400" fill="#64748B" letter-spacing="0.00" text-anchor="start" opacity="1.00">background_retrain(run_id)</text><rect x="306.0" y="74.0" width="460.0" height="812.0" rx="14" fill="#FFFFFF" stroke="#CBD5E1" stroke-width="1" filter="url(#regionShadow)"/><rect x="306.0" y="74.0" width="460.0" height="52" fill="#7C3AED" fill-opacity="0.07" clip-path="url(#rgnclip1)"/><rect x="306.0" y="74.0" width="460.0" height="4" fill="#7C3AED" clip-path="url(#rgnclip1)"/><rect x="330.0" y="89.0" width="19" height="15" rx="4" fill="#7C3AED"/><text x="339.5" y="100.0" font-family="Inter, 'Segoe UI', Arial, Helvetica, sans-serif" font-size="9.40" font-weight="700" fill="#FFFFFF" letter-spacing="0.30" text-anchor="middle" opacity="1.00">02</text><text x="357.0" y="100.0" font-family="Inter, 'Segoe UI', Arial, Helvetica, sans-serif" font-size="10.50" font-weight="700" fill="#334155" letter-spacing="1.10" text-anchor="start" opacity="1.00">PIPELINE (FLOW-03..06)</text><text x="330.0" y="117.0" font-family="Inter, 'Segoe UI', Arial, Helvetica, sans-serif" font-size="9.00" font-weight="400" fill="#64748B" letter-spacing="0.00" text-anchor="start" opacity="1.00">reservation -&gt; ... -&gt; activation</text><rect x="780.0" y="74.0" width="460.0" height="812.0" rx="14" fill="#FFFFFF" stroke="#CBD5E1" stroke-width="1" filter="url(#regionShadow)"/><rect x="780.0" y="74.0" width="460.0" height="52" fill="#059669" fill-opacity="0.07" clip-path="url(#rgnclip2)"/><rect x="780.0" y="74.0" width="460.0" height="4" fill="#059669" clip-path="url(#rgnclip2)"/><rect x="804.0" y="89.0" width="19" height="15" rx="4" fill="#059669"/><text x="813.5" y="100.0" font-family="Inter, 'Segoe UI', Arial, Helvetica, sans-serif" font-size="9.40" font-weight="700" fill="#FFFFFF" letter-spacing="0.30" text-anchor="middle" opacity="1.00">03</text><text x="831.0" y="100.0" font-family="Inter, 'Segoe UI', Arial, Helvetica, sans-serif" font-size="10.50" font-weight="700" fill="#334155" letter-spacing="1.10" text-anchor="start" opacity="1.00">TERMINAL STATUS</text><text x="804.0" y="117.0" font-family="Inter, 'Segoe UI', Arial, Helvetica, sans-serif" font-size="9.00" font-weight="400" fill="#64748B" letter-spacing="0.00" text-anchor="start" opacity="1.00">6 possible outcomes</text><rect x="1254.0" y="74.0" width="406.0" height="812.0" rx="14" fill="#FFFFFF" stroke="#CBD5E1" stroke-width="1" filter="url(#regionShadow)"/><rect x="1254.0" y="74.0" width="406.0" height="52" fill="#7C3AED" fill-opacity="0.07" clip-path="url(#rgnclip3)"/><rect x="1254.0" y="74.0" width="406.0" height="4" fill="#7C3AED" clip-path="url(#rgnclip3)"/><rect x="1278.0" y="89.0" width="19" height="15" rx="4" fill="#7C3AED"/><text x="1287.5" y="100.0" font-family="Inter, 'Segoe UI', Arial, Helvetica, sans-serif" font-size="9.40" font-weight="700" fill="#FFFFFF" letter-spacing="0.30" text-anchor="middle" opacity="1.00">04</text><text x="1305.0" y="100.0" font-family="Inter, 'Segoe UI', Arial, Helvetica, sans-serif" font-size="10.50" font-weight="700" fill="#334155" letter-spacing="1.10" text-anchor="start" opacity="1.00">CLEANUP &amp; LOCK RELEASE</text><text x="1278.0" y="117.0" font-family="Inter, 'Segoe UI', Arial, Helvetica, sans-serif" font-size="9.00" font-weight="400" fill="#64748B" letter-spacing="0.00" text-anchor="start" opacity="1.00">model_cleanup, release_lock</text><rect x="20.0" y="940.0" width="1640.0" height="174.0" rx="14" fill="#FEF2F2" fill-opacity="0.45" stroke="#FECACA" stroke-width="1" stroke-dasharray="6 4"/><g transform="translate(42.0,955.0) scale(0.880)" fill="none" stroke="#DC2626" stroke-width="1.70" stroke-linecap="round" stroke-linejoin="round"><path d="M9 2.2 L16.6 15.6 H1.4 Z"/><path d="M9 6.9 V10.9"/><circle cx="9" cy="13.2" r="0.85"/></g><text x="68.0" y="968.0" font-family="Inter, 'Segoe UI', Arial, Helvetica, sans-serif" font-size="11.00" font-weight="700" fill="#991B1B" letter-spacing="1.10" text-anchor="start" opacity="1.00">EXCEPTIONS AND CURRENT LIMITATIONS</text><g><rect x="44.0" y="128.0" width="224.0" height="90.0" rx="10" fill="#F5F3FF" stroke="#DDD6FE" stroke-width="1" filter="url(#cardShadow)"/><rect x="44.0" y="138.0" width="3" height="70.0" rx="1.5" fill="#7C3AED"/><g transform="translate(57.0,140.0) scale(0.860)" fill="none" stroke="#7C3AED" stroke-width="1.74" stroke-linecap="round" stroke-linejoin="round"><circle cx="9" cy="9" r="3.1"/><path d="M9 1.6 V3.4 M9 14.6 V16.4 M1.6 9 H3.4 M14.6 9 H16.4 M3.8 3.8 L5 5 M13 13 L14.2 14.2 M14.2 3.8 L13 5 M5 13 L3.8 14.2"/></g><rect x="232.0" y="138.0" width="23" height="16" rx="5" fill="#7C3AED" fill-opacity="0.16" stroke="#7C3AED" stroke-width="0.9"/><text x="243.5" y="149.5" font-family="Inter, 'Segoe UI', Arial, Helvetica, sans-serif" font-size="9.60" font-weight="700" fill="#5B21B6" letter-spacing="0.20" text-anchor="middle" opacity="1.00">01</text><text x="78.0" y="148.0" font-family="Inter, 'Segoe UI', Arial, Helvetica, sans-serif" font-size="8.60" font-weight="700" fill="#5B21B6" letter-spacing="0.80" text-anchor="start" opacity="1.00">THREAD ENTRY</text><text x="78.0" y="161.5" font-family="Inter, 'Segoe UI', Arial, Helvetica, sans-serif" font-size="13.00" font-weight="650" fill="#0F172A" letter-spacing="-0.10" text-anchor="start" opacity="1.00">background_retrain(run_id)</text><text x="57.0" y="179.0" font-family="'JetBrains Mono', 'Cascadia Mono', 'Liberation Mono', Consolas, monospace" font-size="10.60" font-weight="400" fill="#334155" letter-spacing="0.00" text-anchor="start" opacity="1.00">daemon Thread, started by…</text><text x="57.0" y="192.0" font-family="Inter, 'Segoe UI', Arial, Helvetica, sans-serif" font-size="10.40" font-weight="400" fill="#475569" letter-spacing="0.00" text-anchor="start" opacity="1.00">Owns lifecycle status writes end to end</text><text x="57.0" y="204.4" font-family="Inter, 'Segoe UI', Arial, Helvetica, sans-serif" font-size="10.40" font-weight="400" fill="#475569" letter-spacing="0.00" text-anchor="start" opacity="1.00">for this run.</text></g><g><rect x="44.0" y="232.0" width="224.0" height="90.0" rx="10" fill="#ECFDF5" stroke="#A7F3D0" stroke-width="1" filter="url(#cardShadow)"/><rect x="44.0" y="242.0" width="3" height="70.0" rx="1.5" fill="#059669"/><g transform="translate(57.0,244.0) scale(0.860)" fill="none" stroke="#059669" stroke-width="1.74" stroke-linecap="round" stroke-linejoin="round"><ellipse cx="9" cy="4.1" rx="6" ry="2.4"/><path d="M3 4.1 V13.9 c0 1.3 2.7 2.4 6 2.4 s6-1.1 6-2.4 V4.1"/><path d="M3 9 c0 1.3 2.7 2.4 6 2.4 s6-1.1 6-2.4"/></g><rect x="232.0" y="242.0" width="23" height="16" rx="5" fill="#059669" fill-opacity="0.16" stroke="#059669" stroke-width="0.9"/><text x="243.5" y="253.5" font-family="Inter, 'Segoe UI', Arial, Helvetica, sans-serif" font-size="9.60" font-weight="700" fill="#065F46" letter-spacing="0.20" text-anchor="middle" opacity="1.00">01</text><text x="78.0" y="252.0" font-family="Inter, 'Segoe UI', Arial, Helvetica, sans-serif" font-size="8.60" font-weight="700" fill="#065F46" letter-spacing="0.80" text-anchor="start" opacity="1.00">BASELINE FETCHED</text><text x="78.0" y="265.5" font-family="Inter, 'Segoe UI', Arial, Helvetica, sans-serif" font-size="13.00" font-weight="650" fill="#0F172A" letter-spacing="-0.10" text-anchor="start" opacity="1.00">_fetch_baseline()</text><text x="57.0" y="283.0" font-family="'JetBrains Mono', 'Cascadia Mono', 'Liberation Mono', Consolas, monospace" font-size="10.60" font-weight="400" fill="#334155" letter-spacing="0.00" text-anchor="start" opacity="1.00">active.json's own run, if any</text><text x="57.0" y="296.0" font-family="Inter, 'Segoe UI', Arial, Helvetica, sans-serif" font-size="10.40" font-weight="400" fill="#475569" letter-spacing="0.00" text-anchor="start" opacity="1.00">None/None on a first run — never</text><text x="57.0" y="308.4" font-family="Inter, 'Segoe UI', Arial, Helvetica, sans-serif" font-size="10.40" font-weight="400" fill="#475569" letter-spacing="0.00" text-anchor="start" opacity="1.00">invented.</text></g><g><rect x="330.0" y="128.0" width="224.0" height="90.0" rx="10" fill="#F5F3FF" stroke="#DDD6FE" stroke-width="1" filter="url(#cardShadow)"/><rect x="330.0" y="138.0" width="3" height="70.0" rx="1.5" fill="#7C3AED"/><g transform="translate(343.0,140.0) scale(0.860)" fill="none" stroke="#7C3AED" stroke-width="1.74" stroke-linecap="round" stroke-linejoin="round"><circle cx="9" cy="9" r="3.1"/><path d="M9 1.6 V3.4 M9 14.6 V16.4 M1.6 9 H3.4 M14.6 9 H16.4 M3.8 3.8 L5 5 M13 13 L14.2 14.2 M14.2 3.8 L13 5 M5 13 L3.8 14.2"/></g><rect x="518.0" y="138.0" width="23" height="16" rx="5" fill="#7C3AED" fill-opacity="0.16" stroke="#7C3AED" stroke-width="0.9"/><text x="529.5" y="149.5" font-family="Inter, 'Segoe UI', Arial, Helvetica, sans-serif" font-size="9.60" font-weight="700" fill="#5B21B6" letter-spacing="0.20" text-anchor="middle" opacity="1.00">02</text><text x="364.0" y="148.0" font-family="Inter, 'Segoe UI', Arial, Helvetica, sans-serif" font-size="8.60" font-weight="700" fill="#5B21B6" letter-spacing="0.80" text-anchor="start" opacity="1.00">RESERVATION + SNAPSHOT</text><text x="364.0" y="161.5" font-family="Inter, 'Segoe UI', Arial, Helvetica, sans-serif" font-size="13.00" font-weight="650" fill="#0F172A" letter-spacing="-0.10" text-anchor="start" opacity="1.00">ML-FLOW-03</text><text x="343.0" y="179.0" font-family="'JetBrains Mono', 'Cascadia Mono', 'Liberation Mono', Consolas, monospace" font-size="10.60" font-weight="400" fill="#334155" letter-spacing="0.00" text-anchor="start" opacity="1.00">reserve_feedback_for_run,…</text><text x="343.0" y="192.0" font-family="Inter, 'Segoe UI', Arial, Helvetica, sans-serif" font-size="10.40" font-weight="400" fill="#475569" letter-spacing="0.00" text-anchor="start" opacity="1.00">Failure here fails the run at stage</text><text x="343.0" y="204.4" font-family="Inter, 'Segoe UI', Arial, Helvetica, sans-serif" font-size="10.40" font-weight="400" fill="#475569" letter-spacing="0.00" text-anchor="start" opacity="1.00">'reservation' or 'snapshot'.</text></g><g><rect x="330.0" y="232.0" width="224.0" height="90.0" rx="10" fill="#F5F3FF" stroke="#DDD6FE" stroke-width="1" filter="url(#cardShadow)"/><rect x="330.0" y="242.0" width="3" height="70.0" rx="1.5" fill="#7C3AED"/><g transform="translate(343.0,244.0) scale(0.860)" fill="none" stroke="#7C3AED" stroke-width="1.74" stroke-linecap="round" stroke-linejoin="round"><circle cx="9" cy="9" r="3.1"/><path d="M9 1.6 V3.4 M9 14.6 V16.4 M1.6 9 H3.4 M14.6 9 H16.4 M3.8 3.8 L5 5 M13 13 L14.2 14.2 M14.2 3.8 L13 5 M5 13 L3.8 14.2"/></g><rect x="518.0" y="242.0" width="23" height="16" rx="5" fill="#7C3AED" fill-opacity="0.16" stroke="#7C3AED" stroke-width="0.9"/><text x="529.5" y="253.5" font-family="Inter, 'Segoe UI', Arial, Helvetica, sans-serif" font-size="9.60" font-weight="700" fill="#5B21B6" letter-spacing="0.20" text-anchor="middle" opacity="1.00">02</text><text x="364.0" y="252.0" font-family="Inter, 'Segoe UI', Arial, Helvetica, sans-serif" font-size="8.60" font-weight="700" fill="#5B21B6" letter-spacing="0.80" text-anchor="start" opacity="1.00">TRAIN + EVALUATE</text><text x="364.0" y="265.5" font-family="Inter, 'Segoe UI', Arial, Helvetica, sans-serif" font-size="13.00" font-weight="650" fill="#0F172A" letter-spacing="-0.10" text-anchor="start" opacity="1.00">ML-FLOW-04</text><text x="343.0" y="283.0" font-family="'JetBrains Mono', 'Cascadia Mono', 'Liberation Mono', Consolas, monospace" font-size="10.60" font-weight="400" fill="#334155" letter-spacing="0.00" text-anchor="start" opacity="1.00">trainer.py subprocess</text><text x="343.0" y="296.0" font-family="Inter, 'Segoe UI', Arial, Helvetica, sans-serif" font-size="10.40" font-weight="400" fill="#475569" letter-spacing="0.00" text-anchor="start" opacity="1.00">run status -&gt; 'evaluating' the instant this</text><text x="343.0" y="308.4" font-family="Inter, 'Segoe UI', Arial, Helvetica, sans-serif" font-size="10.40" font-weight="400" fill="#475569" letter-spacing="0.00" text-anchor="start" opacity="1.00">stage completes.</text></g><g><rect x="330.0" y="336.0" width="224.0" height="90.0" rx="10" fill="#F5F3FF" stroke="#DDD6FE" stroke-width="1" filter="url(#cardShadow)"/><rect x="330.0" y="346.0" width="3" height="70.0" rx="1.5" fill="#7C3AED"/><g transform="translate(343.0,348.0) scale(0.860)" fill="none" stroke="#7C3AED" stroke-width="1.74" stroke-linecap="round" stroke-linejoin="round"><circle cx="9" cy="9" r="3.1"/><path d="M9 1.6 V3.4 M9 14.6 V16.4 M1.6 9 H3.4 M14.6 9 H16.4 M3.8 3.8 L5 5 M13 13 L14.2 14.2 M14.2 3.8 L13 5 M5 13 L3.8 14.2"/></g><rect x="518.0" y="346.0" width="23" height="16" rx="5" fill="#7C3AED" fill-opacity="0.16" stroke="#7C3AED" stroke-width="0.9"/><text x="529.5" y="357.5" font-family="Inter, 'Segoe UI', Arial, Helvetica, sans-serif" font-size="9.60" font-weight="700" fill="#5B21B6" letter-spacing="0.20" text-anchor="middle" opacity="1.00">02</text><text x="364.0" y="356.0" font-family="Inter, 'Segoe UI', Arial, Helvetica, sans-serif" font-size="8.60" font-weight="700" fill="#5B21B6" letter-spacing="0.80" text-anchor="start" opacity="1.00">VALIDATE</text><text x="364.0" y="369.5" font-family="Inter, 'Segoe UI', Arial, Helvetica, sans-serif" font-size="13.00" font-weight="650" fill="#0F172A" letter-spacing="-0.10" text-anchor="start" opacity="1.00">ML-FLOW-05</text><text x="343.0" y="387.0" font-family="'JetBrains Mono', 'Cascadia Mono', 'Liberation Mono', Consolas, monospace" font-size="10.60" font-weight="400" fill="#334155" letter-spacing="0.00" text-anchor="start" opacity="1.00">validate_model.py subprocess</text><text x="343.0" y="400.0" font-family="Inter, 'Segoe UI', Arial, Helvetica, sans-serif" font-size="10.40" font-weight="400" fill="#475569" letter-spacing="0.00" text-anchor="start" opacity="1.00">9 gates; failure here -&gt; failed_validation.</text></g><g><rect x="804.0" y="128.0" width="224.0" height="90.0" rx="10" fill="#ECFDF5" stroke="#A7F3D0" stroke-width="1" filter="url(#cardShadow)"/><rect x="804.0" y="138.0" width="3" height="70.0" rx="1.5" fill="#059669"/><g transform="translate(817.0,140.0) scale(0.860)" fill="none" stroke="#059669" stroke-width="1.74" stroke-linecap="round" stroke-linejoin="round"><rect x="2.2" y="2.4" width="13.6" height="13.2" rx="1.8"/><path d="M5.6 2.4 V7.4 H12.4 V2.4"/><rect x="5.6" y="10" width="6.8" height="5.6" rx="0.8"/></g><rect x="992.0" y="138.0" width="23" height="16" rx="5" fill="#059669" fill-opacity="0.16" stroke="#059669" stroke-width="0.9"/><text x="1003.5" y="149.5" font-family="Inter, 'Segoe UI', Arial, Helvetica, sans-serif" font-size="9.60" font-weight="700" fill="#065F46" letter-spacing="0.20" text-anchor="middle" opacity="1.00">03</text><text x="838.0" y="148.0" font-family="Inter, 'Segoe UI', Arial, Helvetica, sans-serif" font-size="8.60" font-weight="700" fill="#065F46" letter-spacing="0.80" text-anchor="start" opacity="1.00">CANDIDATE PERSISTED</text><text x="838.0" y="161.5" font-family="Inter, 'Segoe UI', Arial, Helvetica, sans-serif" font-size="13.00" font-weight="650" fill="#0F172A" letter-spacing="-0.10" text-anchor="start" opacity="1.00">persist_model_candidate()</text><text x="817.0" y="179.0" font-family="'JetBrains Mono', 'Cascadia Mono', 'Liberation Mono', Consolas, monospace" font-size="10.60" font-weight="400" fill="#334155" letter-spacing="0.00" text-anchor="start" opacity="1.00">whenever a bundle exists</text><text x="817.0" y="192.0" font-family="Inter, 'Segoe UI', Arial, Helvetica, sans-serif" font-size="10.40" font-weight="400" fill="#475569" letter-spacing="0.00" text-anchor="start" opacity="1.00">Recorded even for a rejected candidate,</text><text x="817.0" y="204.4" font-family="Inter, 'Segoe UI', Arial, Helvetica, sans-serif" font-size="10.40" font-weight="400" fill="#475569" letter-spacing="0.00" text-anchor="start" opacity="1.00">for inspection.</text></g><g><rect x="804.0" y="232.0" width="224.0" height="90.0" rx="10" fill="#F5F3FF" stroke="#DDD6FE" stroke-width="1" filter="url(#cardShadow)"/><rect x="804.0" y="242.0" width="3" height="70.0" rx="1.5" fill="#7C3AED"/><g transform="translate(817.0,244.0) scale(0.860)" fill="none" stroke="#7C3AED" stroke-width="1.74" stroke-linecap="round" stroke-linejoin="round"><path d="M10.6 1.4 L3.9 9.9 H8.4 L7.4 16.6 L14.1 8.1 H9.6 Z"/></g><rect x="992.0" y="242.0" width="23" height="16" rx="5" fill="#7C3AED" fill-opacity="0.16" stroke="#7C3AED" stroke-width="0.9"/><text x="1003.5" y="253.5" font-family="Inter, 'Segoe UI', Arial, Helvetica, sans-serif" font-size="9.60" font-weight="700" fill="#5B21B6" letter-spacing="0.20" text-anchor="middle" opacity="1.00">03</text><rect x="966.0" y="242.5" width="22" height="15" rx="4" fill="#FEF2F2" stroke="#DC2626" stroke-width="0.9" stroke-dasharray="2.5 2"/><text x="977.0" y="253.5" font-family="Inter, 'Segoe UI', Arial, Helvetica, sans-serif" font-size="8.60" font-weight="700" fill="#991B1B" letter-spacing="0.00" text-anchor="middle" opacity="1.00">E1</text><text x="838.0" y="252.0" font-family="Inter, 'Segoe UI', Arial, Helvetica, sans-serif" font-size="8.60" font-weight="700" fill="#5B21B6" letter-spacing="0.80" text-anchor="start" opacity="1.00">ACTIVATION ATTEMPTED</text><text x="838.0" y="265.5" font-family="Inter, 'Segoe UI', Arial, Helvetica, sans-serif" font-size="13.00" font-weight="650" fill="#0F172A" letter-spacing="-0.10" text-anchor="start" opacity="1.00">ML-FLOW-06</text><text x="817.0" y="283.0" font-family="'JetBrains Mono', 'Cascadia Mono', 'Liberation Mono', Consolas, monospace" font-size="10.60" font-weight="400" fill="#334155" letter-spacing="0.00" text-anchor="start" opacity="1.00">only if validation succeeded</text><text x="817.0" y="296.0" font-family="Inter, 'Segoe UI', Arial, Helvetica, sans-serif" font-size="10.40" font-weight="400" fill="#475569" letter-spacing="0.00" text-anchor="start" opacity="1.00">6 possible terminal statuses total across</text><text x="817.0" y="308.4" font-family="Inter, 'Segoe UI', Arial, Helvetica, sans-serif" font-size="10.40" font-weight="400" fill="#475569" letter-spacing="0.00" text-anchor="start" opacity="1.00">this whole lifecycle.</text></g><g><rect x="1278.0" y="128.0" width="224.0" height="90.0" rx="10" fill="#F5F3FF" stroke="#DDD6FE" stroke-width="1" filter="url(#cardShadow)"/><rect x="1278.0" y="138.0" width="3" height="70.0" rx="1.5" fill="#7C3AED"/><g transform="translate(1291.0,140.0) scale(0.860)" fill="none" stroke="#7C3AED" stroke-width="1.74" stroke-linecap="round" stroke-linejoin="round"><path d="M15.4 9a6.4 6.4 0 1 1-1.9-4.5"/><path d="M15.6 2.4 V5.6 H12.4"/></g><rect x="1466.0" y="138.0" width="23" height="16" rx="5" fill="#7C3AED" fill-opacity="0.16" stroke="#7C3AED" stroke-width="0.9"/><text x="1477.5" y="149.5" font-family="Inter, 'Segoe UI', Arial, Helvetica, sans-serif" font-size="9.60" font-weight="700" fill="#5B21B6" letter-spacing="0.20" text-anchor="middle" opacity="1.00">04</text><text x="1312.0" y="148.0" font-family="Inter, 'Segoe UI', Arial, Helvetica, sans-serif" font-size="8.60" font-weight="700" fill="#5B21B6" letter-spacing="0.80" text-anchor="start" opacity="1.00">CLEANUP</text><text x="1312.0" y="161.5" font-family="Inter, 'Segoe UI', Arial, Helvetica, sans-serif" font-size="13.00" font-weight="650" fill="#0F172A" letter-spacing="-0.10" text-anchor="start" opacity="1.00">model_cleanup.run_cleanup()</text><text x="1291.0" y="179.0" font-family="'JetBrains Mono', 'Cascadia Mono', 'Liberation Mono', Consolas, monospace" font-size="10.60" font-weight="400" fill="#334155" letter-spacing="0.00" text-anchor="start" opacity="1.00">best-effort, after terminal…</text><text x="1291.0" y="192.0" font-family="Inter, 'Segoe UI', Arial, Helvetica, sans-serif" font-size="10.40" font-weight="400" fill="#475569" letter-spacing="0.00" text-anchor="start" opacity="1.00">A cleanup failure can never affect</text><text x="1291.0" y="204.4" font-family="Inter, 'Segoe UI', Arial, Helvetica, sans-serif" font-size="10.40" font-weight="400" fill="#475569" letter-spacing="0.00" text-anchor="start" opacity="1.00">activation or feedback state.</text></g><g><rect x="1278.0" y="232.0" width="224.0" height="90.0" rx="10" fill="#ECFDF5" stroke="#A7F3D0" stroke-width="1" filter="url(#cardShadow)"/><rect x="1278.0" y="242.0" width="3" height="70.0" rx="1.5" fill="#059669"/><g transform="translate(1291.0,244.0) scale(0.860)" fill="none" stroke="#059669" stroke-width="1.74" stroke-linecap="round" stroke-linejoin="round"><circle cx="5.8" cy="12.1" r="3.1"/><path d="M8.1 9.9 L15.4 2.6"/><path d="M12.4 5.6 L14.5 7.7"/></g><rect x="1466.0" y="242.0" width="23" height="16" rx="5" fill="#059669" fill-opacity="0.16" stroke="#059669" stroke-width="0.9"/><text x="1477.5" y="253.5" font-family="Inter, 'Segoe UI', Arial, Helvetica, sans-serif" font-size="9.60" font-weight="700" fill="#065F46" letter-spacing="0.20" text-anchor="middle" opacity="1.00">05</text><text x="1312.0" y="252.0" font-family="Inter, 'Segoe UI', Arial, Helvetica, sans-serif" font-size="8.60" font-weight="700" fill="#065F46" letter-spacing="0.80" text-anchor="start" opacity="1.00">LOCK RELEASED</text><text x="1312.0" y="265.5" font-family="Inter, 'Segoe UI', Arial, Helvetica, sans-serif" font-size="13.00" font-weight="650" fill="#0F172A" letter-spacing="-0.10" text-anchor="start" opacity="1.00">release_lock()</text><text x="1291.0" y="283.0" font-family="'JetBrains Mono', 'Cascadia Mono', 'Liberation Mono', Consolas, monospace" font-size="10.60" font-weight="400" fill="#334155" letter-spacing="0.00" text-anchor="start" opacity="1.00">outer finally, owner-checked</text><text x="1291.0" y="296.0" font-family="Inter, 'Segoe UI', Arial, Helvetica, sans-serif" font-size="10.40" font-weight="400" fill="#475569" letter-spacing="0.00" text-anchor="start" opacity="1.00">Only after the ENTIRE sequence — training</text><text x="1291.0" y="308.4" font-family="Inter, 'Segoe UI', Arial, Helvetica, sans-serif" font-size="10.40" font-weight="400" fill="#475569" letter-spacing="0.00" text-anchor="start" opacity="1.00">through activation-or-rollback — is…</text></g><g><rect x="1278.0" y="338.0" width="358.0" height="528.0" rx="12" fill="#FEF2F2" fill-opacity="0.35" stroke="#FECACA" stroke-width="1" stroke-dasharray="5 4"/><text x="1293.0" y="362.0" font-family="Inter, 'Segoe UI', Arial, Helvetica, sans-serif" font-size="9.40" font-weight="700" fill="#991B1B" letter-spacing="0.90" text-anchor="start" opacity="1.00">A HARD PROCESS KILL LOSES THE THREAD SILENTLY</text><text x="1293.0" y="382.0" font-family="Inter, 'Segoe UI', Arial, Helvetica, sans-serif" font-size="10.00" font-weight="400" fill="#475569" letter-spacing="0.00" text-anchor="start" opacity="1.00">The MongoDB lock makes this safe ACROSS processes, but within one</text><text x="1293.0" y="394.6" font-family="Inter, 'Segoe UI', Arial, Helvetica, sans-serif" font-size="10.00" font-weight="400" fill="#475569" letter-spacing="0.00" text-anchor="start" opacity="1.00">process this is an ordinary daemon Thread — a kill mid-run leaves no</text><text x="1293.0" y="407.2" font-family="Inter, 'Segoe UI', Arial, Helvetica, sans-serif" font-size="10.00" font-weight="400" fill="#475569" letter-spacing="0.00" text-anchor="start" opacity="1.00">in-process trace; ML-FLOW-08's startup sweep is the only recovery…</text></g><g><rect x="40.0" y="982.0" width="253.0" height="118.0" rx="10" fill="#FFFFFF" stroke="#FECACA" stroke-width="1"/><rect x="40.0" y="992.0" width="3" height="98.0" rx="1.5" fill="#DC2626"/><rect x="53.0" y="994.0" width="24" height="16" rx="5" fill="#FEF2F2" stroke="#DC2626" stroke-width="0.9"/><text x="65.0" y="1005.5" font-family="Inter, 'Segoe UI', Arial, Helvetica, sans-serif" font-size="9.60" font-weight="700" fill="#991B1B" letter-spacing="0.00" text-anchor="middle" opacity="1.00">E1</text><text x="85.0" y="1006.0" font-family="Inter, 'Segoe UI', Arial, Helvetica, sans-serif" font-size="11.40" font-weight="700" fill="#991B1B" letter-spacing="0.00" text-anchor="start" opacity="1.00">Six distinct terminal states</text><text x="53.0" y="1026.0" font-family="'JetBrains Mono', 'Cascadia Mono', 'Liberation Mono', Consolas, monospace" font-size="10.00" font-weight="400" fill="#334155" letter-spacing="0.00" text-anchor="start" opacity="1.00">from  training_run_repository.py</text><text x="53.0" y="1042.0" font-family="Inter, 'Segoe UI', Arial, Helvetica, sans-serif" font-size="10.00" font-weight="400" fill="#475569" letter-spacing="0.00" text-anchor="start" opacity="1.00">activated / failed / failed_validation /</text><text x="53.0" y="1054.2" font-family="Inter, 'Segoe UI', Arial, Helvetica, sans-serif" font-size="10.00" font-weight="400" fill="#475569" letter-spacing="0.00" text-anchor="start" opacity="1.00">failed_activation, plus the legacy 'completed' —</text><text x="53.0" y="1066.4" font-family="Inter, 'Segoe UI', Arial, Helvetica, sans-serif" font-size="10.00" font-weight="400" fill="#475569" letter-spacing="0.00" text-anchor="start" opacity="1.00">never collapsed into one generic 'done'.</text></g><path d="M 156.0 218.0 L 156.0 232.0" fill="none" stroke="#059669" stroke-width="1.80" marker-end="url(#arrow-database)" stroke-linecap="round" opacity="1.00"/><path d="M 442.0 218.0 L 442.0 232.0" fill="none" stroke="#7C3AED" stroke-width="1.80" marker-end="url(#arrow-backend)" stroke-linecap="round" opacity="1.00"/><path d="M 442.0 322.0 L 442.0 336.0" fill="none" stroke="#7C3AED" stroke-width="1.80" marker-end="url(#arrow-backend)" stroke-linecap="round" opacity="1.00"/><path d="M 916.0 218.0 L 916.0 232.0" fill="none" stroke="#7C3AED" stroke-width="1.80" marker-end="url(#arrow-backend)" stroke-linecap="round" opacity="1.00"/><path d="M 1390.0 218.0 L 1390.0 232.0" fill="none" stroke="#059669" stroke-width="1.80" marker-end="url(#arrow-database)" stroke-linecap="round" opacity="1.00"/><path d="M 268.0 277.0 L 291.0 277.0 Q 299.0 277.0 299.0 269.0 L 299.0 74.0 Q 299.0 66.0 307.0 66.0 L 520.0 66.0 Q 528.0 66.0 528.0 74.0 L 528.0 128.0" fill="none" stroke="#7C3AED" stroke-width="2.80" marker-end="url(#arrow-backend)" stroke-linecap="round" opacity="1.00"/><path d="M 346.0 61.4 L 354.0 66.0 L 346.0 70.6 Z" fill="#7C3AED"/><path d="M 554.0 381.0 L 765.0 381.0 Q 773.0 381.0 773.0 373.0 L 773.0 74.0 Q 773.0 66.0 781.0 66.0 L 994.0 66.0 Q 1002.0 66.0 1002.0 74.0 L 1002.0 128.0" fill="none" stroke="#059669" stroke-width="2.80" marker-end="url(#arrow-database)" stroke-linecap="round" opacity="1.00"/><path d="M 820.0 61.4 L 828.0 66.0 L 820.0 70.6 Z" fill="#059669"/><path d="M 1028.0 277.0 L 1239.0 277.0 Q 1247.0 277.0 1247.0 269.0 L 1247.0 74.0 Q 1247.0 66.0 1255.0 66.0 L 1468.0 66.0 Q 1476.0 66.0 1476.0 74.0 L 1476.0 128.0" fill="none" stroke="#7C3AED" stroke-width="2.80" marker-end="url(#arrow-backend)" stroke-linecap="round" opacity="1.00"/><path d="M 1294.0 61.4 L 1302.0 66.0 L 1294.0 70.6 Z" fill="#7C3AED"/><path d="M 20 1130 H 1660" stroke="#E2E8F0" stroke-width="1"/><rect x="20.0" y="1145.0" width="11" height="11" rx="3" fill="#EFF6FF" stroke="#2563EB" stroke-width="1"/><text x="36.0" y="1154.0" font-family="Inter, 'Segoe UI', Arial, Helvetica, sans-serif" font-size="9.20" font-weight="400" fill="#475569" letter-spacing="0.00" text-anchor="start" opacity="1.00">Frontend / request layer</text><rect x="158.6" y="1145.0" width="11" height="11" rx="3" fill="#FFFBEB" stroke="#D97706" stroke-width="1"/><text x="174.6" y="1154.0" font-family="Inter, 'Segoe UI', Arial, Helvetica, sans-serif" font-size="9.20" font-weight="400" fill="#475569" letter-spacing="0.00" text-anchor="start" opacity="1.00">Authentication / security</text><rect x="300.0" y="1145.0" width="11" height="11" rx="3" fill="#F5F3FF" stroke="#7C3AED" stroke-width="1"/><text x="316.0" y="1154.0" font-family="Inter, 'Segoe UI', Arial, Helvetica, sans-serif" font-size="9.20" font-weight="400" fill="#475569" letter-spacing="0.00" text-anchor="start" opacity="1.00">Backend processing</text><rect x="421.2" y="1145.0" width="11" height="11" rx="3" fill="#ECFDF5" stroke="#059669" stroke-width="1"/><text x="437.2" y="1154.0" font-family="Inter, 'Segoe UI', Arial, Helvetica, sans-serif" font-size="9.20" font-weight="400" fill="#475569" letter-spacing="0.00" text-anchor="start" opacity="1.00">Database / cache operations</text><rect x="578.5" y="1145.0" width="11" height="11" rx="3" fill="#F0FDFA" stroke="#0D9488" stroke-width="1"/><text x="594.5" y="1154.0" font-family="Inter, 'Segoe UI', Arial, Helvetica, sans-serif" font-size="9.20" font-weight="400" fill="#475569" letter-spacing="0.00" text-anchor="start" opacity="1.00">Analytics / insights</text><rect x="699.4" y="1145.0" width="11" height="11" rx="3" fill="#ECFEFF" stroke="#0891B2" stroke-width="1"/><text x="715.4" y="1154.0" font-family="Inter, 'Segoe UI', Arial, Helvetica, sans-serif" font-size="9.20" font-weight="400" fill="#475569" letter-spacing="0.00" text-anchor="start" opacity="1.00">Response / data transfer</text><rect x="840.0" y="1145.0" width="11" height="11" rx="3" fill="#FDF2F8" stroke="#DB2777" stroke-width="1"/><text x="856.0" y="1154.0" font-family="Inter, 'Segoe UI', Arial, Helvetica, sans-serif" font-size="9.20" font-weight="400" fill="#475569" letter-spacing="0.00" text-anchor="start" opacity="1.00">UI / output</text><rect x="922.7" y="1145.0" width="11" height="11" rx="3" fill="#FEF2F2" stroke="#DC2626" stroke-width="1"/><text x="938.7" y="1154.0" font-family="Inter, 'Segoe UI', Arial, Helvetica, sans-serif" font-size="9.20" font-weight="400" fill="#475569" letter-spacing="0.00" text-anchor="start" opacity="1.00">Errors / alternate paths</text><text x="20.0" y="1172.0" font-family="Inter, 'Segoe UI', Arial, Helvetica, sans-serif" font-size="8.80" font-weight="400" fill="#64748B" letter-spacing="0.00" text-anchor="start" opacity="1.00">Heavy arrows are region hand-offs; the cyan one is the HTTP response. Light arrows are steps inside a region. Absent mechanisms are named in a note, never drawn as implemented steps.</text><text x="20.0" y="1184.0" font-family="Inter, 'Segoe UI', Arial, Helvetica, sans-serif" font-size="8.80" font-weight="400" fill="#64748B" letter-spacing="0.00" text-anchor="start" opacity="1.00">Documented as the umbrella lifecycle per the rules — does not replace the independent FLOW-03..06 detail.</text></svg>