<svg xmlns="http://www.w3.org/2000/svg" xmlns:xlink="http://www.w3.org/1999/xlink" width="1680" height="1210" viewBox="0 0 1680 1210" role="img"><title>POST /auth/resend-otp — detailed implementation workflow</title><desc>Level 2 · real functions, middleware and models · badges map to the 8 stages in auth-api-04-resend-otp-overview.svg</desc><defs><filter id="cardShadow" x="-20%" y="-20%" width="140%" height="150%"><feDropShadow dx="0" dy="1" stdDeviation="1.25" flood-color="#0F172A" flood-opacity="0.07"/></filter><filter id="regionShadow" x="-10%" y="-10%" width="120%" height="120%"><feDropShadow dx="0" dy="1" stdDeviation="1.5" flood-color="#0F172A" flood-opacity="0.04"/></filter><marker id="arrow-frontend" viewBox="0 0 10 10" refX="8.2" refY="5" markerWidth="5.4" markerHeight="5.4" orient="auto-start-reverse"><path d="M 0 1.2 L 8.6 5 L 0 8.8 z" fill="#2563EB"/></marker><marker id="arrow-auth" viewBox="0 0 10 10" refX="8.2" refY="5" markerWidth="5.4" markerHeight="5.4" orient="auto-start-reverse"><path d="M 0 1.2 L 8.6 5 L 0 8.8 z" fill="#D97706"/></marker><marker id="arrow-backend" viewBox="0 0 10 10" refX="8.2" refY="5" markerWidth="5.4" markerHeight="5.4" orient="auto-start-reverse"><path d="M 0 1.2 L 8.6 5 L 0 8.8 z" fill="#7C3AED"/></marker><marker id="arrow-database" viewBox="0 0 10 10" refX="8.2" refY="5" markerWidth="5.4" markerHeight="5.4" orient="auto-start-reverse"><path d="M 0 1.2 L 8.6 5 L 0 8.8 z" fill="#059669"/></marker><marker id="arrow-insights" viewBox="0 0 10 10" refX="8.2" refY="5" markerWidth="5.4" markerHeight="5.4" orient="auto-start-reverse"><path d="M 0 1.2 L 8.6 5 L 0 8.8 z" fill="#0D9488"/></marker><marker id="arrow-response" viewBox="0 0 10 10" refX="8.2" refY="5" markerWidth="5.4" markerHeight="5.4" orient="auto-start-reverse"><path d="M 0 1.2 L 8.6 5 L 0 8.8 z" fill="#0891B2"/></marker><marker id="arrow-ui" viewBox="0 0 10 10" refX="8.2" refY="5" markerWidth="5.4" markerHeight="5.4" orient="auto-start-reverse"><path d="M 0 1.2 L 8.6 5 L 0 8.8 z" fill="#DB2777"/></marker><marker id="arrow-error" viewBox="0 0 10 10" refX="8.2" refY="5" markerWidth="5.4" markerHeight="5.4" orient="auto-start-reverse"><path d="M 0 1.2 L 8.6 5 L 0 8.8 z" fill="#DC2626"/></marker><clipPath id="rgnclip0"><rect x="20.0" y="74.0" width="340.0" height="812.0" rx="14"/></clipPath><clipPath id="rgnclip1"><rect x="374.0" y="74.0" width="340.0" height="812.0" rx="14"/></clipPath><clipPath id="rgnclip2"><rect x="728.0" y="74.0" width="340.0" height="812.0" rx="14"/></clipPath><clipPath id="rgnclip3"><rect x="1082.0" y="74.0" width="578.0" height="812.0" rx="14"/></clipPath></defs><rect width="1680" height="1210" fill="#F1F5F9"/><rect x="0" y="0" width="1680" height="62" fill="#FFFFFF"/><path d="M 0 62 H 1680" stroke="#CBD5E1" stroke-width="1"/><text x="20.0" y="28.0" font-family="Inter, 'Segoe UI', Arial, Helvetica, sans-serif" font-size="19.00" font-weight="700" fill="#0F172A" letter-spacing="-0.20" text-anchor="start" opacity="1.00">POST /auth/resend-otp — detailed implementation workflow</text><text x="20.0" y="46.0" font-family="Inter, 'Segoe UI', Arial, Helvetica, sans-serif" font-size="11.50" font-weight="400" fill="#475569" letter-spacing="0.00" text-anchor="start" opacity="1.00">Level 2 · real functions, middleware and models · badges map to the 8 stages in auth-api-04-resend-otp-overview.svg</text><text x="1660.0" y="28.0" font-family="Inter, 'Segoe UI', Arial, Helvetica, sans-serif" font-size="10.50" font-weight="500" fill="#64748B" letter-spacing="0.00" text-anchor="end" opacity="1.00">BALENISA · Personal Finance Platform</text><text x="1660.0" y="46.0" font-family="Inter, 'Segoe UI', Arial, Helvetica, sans-serif" font-size="9.50" font-weight="400" fill="#64748B" letter-spacing="0.00" text-anchor="end" opacity="1.00">docs/api-workflows · AUTH-API-04 · Level 2 detailed</text><rect x="20.0" y="74.0" width="340.0" height="812.0" rx="14" fill="#FFFFFF" stroke="#CBD5E1" stroke-width="1" filter="url(#regionShadow)"/><rect x="20.0" y="74.0" width="340.0" height="52" fill="#DB2777" fill-opacity="0.07" clip-path="url(#rgnclip0)"/><rect x="20.0" y="74.0" width="340.0" height="4" fill="#DB2777" clip-path="url(#rgnclip0)"/><rect x="44.0" y="89.0" width="19" height="15" rx="4" fill="#DB2777"/><text x="53.5" y="100.0" font-family="Inter, 'Segoe UI', Arial, Helvetica, sans-serif" font-size="9.40" font-weight="700" fill="#FFFFFF" letter-spacing="0.30" text-anchor="middle" opacity="1.00">01</text><text x="71.0" y="100.0" font-family="Inter, 'Segoe UI', Arial, Helvetica, sans-serif" font-size="10.50" font-weight="700" fill="#334155" letter-spacing="1.10" text-anchor="start" opacity="1.00">CLIENT COUNTDOWN &amp; REQUEST</text><text x="44.0" y="117.0" font-family="Inter, 'Segoe UI', Arial, Helvetica, sans-serif" font-size="9.00" font-weight="400" fill="#64748B" letter-spacing="0.00" text-anchor="start" opacity="1.00">Independent of the server's own timer</text><rect x="374.0" y="74.0" width="340.0" height="812.0" rx="14" fill="#FFFFFF" stroke="#CBD5E1" stroke-width="1" filter="url(#regionShadow)"/><rect x="374.0" y="74.0" width="340.0" height="52" fill="#D97706" fill-opacity="0.07" clip-path="url(#rgnclip1)"/><rect x="374.0" y="74.0" width="340.0" height="4" fill="#D97706" clip-path="url(#rgnclip1)"/><rect x="398.0" y="89.0" width="19" height="15" rx="4" fill="#D97706"/><text x="407.5" y="100.0" font-family="Inter, 'Segoe UI', Arial, Helvetica, sans-serif" font-size="9.40" font-weight="700" fill="#FFFFFF" letter-spacing="0.30" text-anchor="middle" opacity="1.00">02</text><text x="425.0" y="100.0" font-family="Inter, 'Segoe UI', Arial, Helvetica, sans-serif" font-size="10.50" font-weight="700" fill="#334155" letter-spacing="1.10" text-anchor="start" opacity="1.00">RATE LIMITER &amp; LOOKUP</text><text x="398.0" y="117.0" font-family="Inter, 'Segoe UI', Arial, Helvetica, sans-serif" font-size="9.00" font-weight="400" fill="#64748B" letter-spacing="0.00" text-anchor="start" opacity="1.00">Shared authLimiter budget</text><rect x="728.0" y="74.0" width="340.0" height="812.0" rx="14" fill="#FFFFFF" stroke="#CBD5E1" stroke-width="1" filter="url(#regionShadow)"/><rect x="728.0" y="74.0" width="340.0" height="52" fill="#7C3AED" fill-opacity="0.07" clip-path="url(#rgnclip2)"/><rect x="728.0" y="74.0" width="340.0" height="4" fill="#7C3AED" clip-path="url(#rgnclip2)"/><rect x="752.0" y="89.0" width="19" height="15" rx="4" fill="#7C3AED"/><text x="761.5" y="100.0" font-family="Inter, 'Segoe UI', Arial, Helvetica, sans-serif" font-size="9.40" font-weight="700" fill="#FFFFFF" letter-spacing="0.30" text-anchor="middle" opacity="1.00">03</text><text x="779.0" y="100.0" font-family="Inter, 'Segoe UI', Arial, Helvetica, sans-serif" font-size="10.50" font-weight="700" fill="#334155" letter-spacing="1.10" text-anchor="start" opacity="1.00">GUARDS</text><text x="752.0" y="117.0" font-family="Inter, 'Segoe UI', Arial, Helvetica, sans-serif" font-size="9.00" font-weight="400" fill="#64748B" letter-spacing="0.00" text-anchor="start" opacity="1.00">Verified check, then cooldown</text><rect x="1082.0" y="74.0" width="578.0" height="812.0" rx="14" fill="#FFFFFF" stroke="#CBD5E1" stroke-width="1" filter="url(#regionShadow)"/><rect x="1082.0" y="74.0" width="578.0" height="52" fill="#0891B2" fill-opacity="0.07" clip-path="url(#rgnclip3)"/><rect x="1082.0" y="74.0" width="578.0" height="4" fill="#0891B2" clip-path="url(#rgnclip3)"/><rect x="1106.0" y="89.0" width="19" height="15" rx="4" fill="#0891B2"/><text x="1115.5" y="100.0" font-family="Inter, 'Segoe UI', Arial, Helvetica, sans-serif" font-size="9.40" font-weight="700" fill="#FFFFFF" letter-spacing="0.30" text-anchor="middle" opacity="1.00">04</text><text x="1133.0" y="100.0" font-family="Inter, 'Segoe UI', Arial, Helvetica, sans-serif" font-size="10.50" font-weight="700" fill="#334155" letter-spacing="1.10" text-anchor="start" opacity="1.00">REISSUE &amp; RESPONSE</text><text x="1106.0" y="117.0" font-family="Inter, 'Segoe UI', Arial, Helvetica, sans-serif" font-size="9.00" font-weight="400" fill="#64748B" letter-spacing="0.00" text-anchor="start" opacity="1.00">New code, same 5-min expiry</text><rect x="20.0" y="940.0" width="1640.0" height="174.0" rx="14" fill="#FEF2F2" fill-opacity="0.45" stroke="#FECACA" stroke-width="1" stroke-dasharray="6 4"/><g transform="translate(42.0,955.0) scale(0.880)" fill="none" stroke="#DC2626" stroke-width="1.70" stroke-linecap="round" stroke-linejoin="round"><path d="M9 2.2 L16.6 15.6 H1.4 Z"/><path d="M9 6.9 V10.9"/><circle cx="9" cy="13.2" r="0.85"/></g><text x="68.0" y="968.0" font-family="Inter, 'Segoe UI', Arial, Helvetica, sans-serif" font-size="11.00" font-weight="700" fill="#991B1B" letter-spacing="1.10" text-anchor="start" opacity="1.00">EXCEPTIONS AND CURRENT LIMITATIONS</text><g><rect x="44.0" y="128.0" width="224.0" height="90.0" rx="10" fill="#FDF2F8" stroke="#FBCFE8" stroke-width="1" filter="url(#cardShadow)"/><rect x="44.0" y="138.0" width="3" height="70.0" rx="1.5" fill="#DB2777"/><g transform="translate(57.0,140.0) scale(0.860)" fill="none" stroke="#DB2777" stroke-width="1.74" stroke-linecap="round" stroke-linejoin="round"><path d="M15.4 9a6.4 6.4 0 1 1-1.9-4.5"/><path d="M15.6 2.4 V5.6 H12.4"/></g><rect x="232.0" y="138.0" width="23" height="16" rx="5" fill="#DB2777" fill-opacity="0.16" stroke="#DB2777" stroke-width="0.9"/><text x="243.5" y="149.5" font-family="Inter, 'Segoe UI', Arial, Helvetica, sans-serif" font-size="9.60" font-weight="700" fill="#9D174D" letter-spacing="0.20" text-anchor="middle" opacity="1.00">01</text><text x="78.0" y="148.0" font-family="Inter, 'Segoe UI', Arial, Helvetica, sans-serif" font-size="8.60" font-weight="700" fill="#9D174D" letter-spacing="0.80" text-anchor="start" opacity="1.00">TIMER</text><text x="78.0" y="161.5" font-family="Inter, 'Segoe UI', Arial, Helvetica, sans-serif" font-size="13.00" font-weight="650" fill="#0F172A" letter-spacing="-0.10" text-anchor="start" opacity="1.00">120 s client countdown</text><text x="57.0" y="179.0" font-family="'JetBrains Mono', 'Cascadia Mono', 'Liberation Mono', Consolas, monospace" font-size="10.60" font-weight="400" fill="#334155" letter-spacing="0.00" text-anchor="start" opacity="1.00">OTPForm.js, unsynced</text><text x="57.0" y="192.0" font-family="Inter, 'Segoe UI', Arial, Helvetica, sans-serif" font-size="10.40" font-weight="400" fill="#475569" letter-spacing="0.00" text-anchor="start" opacity="1.00">Independent of the server's own</text><text x="57.0" y="204.4" font-family="Inter, 'Segoe UI', Arial, Helvetica, sans-serif" font-size="10.40" font-weight="400" fill="#475569" letter-spacing="0.00" text-anchor="start" opacity="1.00">cooldown — see E1.</text></g><g><rect x="44.0" y="232.0" width="224.0" height="90.0" rx="10" fill="#F5F3FF" stroke="#DDD6FE" stroke-width="1" filter="url(#cardShadow)"/><rect x="44.0" y="242.0" width="3" height="70.0" rx="1.5" fill="#7C3AED"/><g transform="translate(57.0,244.0) scale(0.860)" fill="none" stroke="#7C3AED" stroke-width="1.74" stroke-linecap="round" stroke-linejoin="round"><path d="M16.2 2 L2 8.6 L8.1 10.4 L9.9 16.4 Z"/><path d="M16.2 2 L8.1 10.4"/></g><rect x="232.0" y="242.0" width="23" height="16" rx="5" fill="#7C3AED" fill-opacity="0.16" stroke="#7C3AED" stroke-width="0.9"/><text x="243.5" y="253.5" font-family="Inter, 'Segoe UI', Arial, Helvetica, sans-serif" font-size="9.60" font-weight="700" fill="#5B21B6" letter-spacing="0.20" text-anchor="middle" opacity="1.00">01</text><text x="78.0" y="252.0" font-family="Inter, 'Segoe UI', Arial, Helvetica, sans-serif" font-size="8.60" font-weight="700" fill="#5B21B6" letter-spacing="0.80" text-anchor="start" opacity="1.00">REQUEST</text><text x="78.0" y="265.5" font-family="Inter, 'Segoe UI', Arial, Helvetica, sans-serif" font-size="13.00" font-weight="650" fill="#0F172A" letter-spacing="-0.10" text-anchor="start" opacity="1.00">POST /auth/resend-otp</text><text x="57.0" y="283.0" font-family="'JetBrains Mono', 'Cascadia Mono', 'Liberation Mono', Consolas, monospace" font-size="10.60" font-weight="400" fill="#334155" letter-spacing="0.00" text-anchor="start" opacity="1.00">{ email }</text><text x="57.0" y="296.0" font-family="Inter, 'Segoe UI', Arial, Helvetica, sans-serif" font-size="10.40" font-weight="400" fill="#475569" letter-spacing="0.00" text-anchor="start" opacity="1.00">Only reachable from OTPForm.js's</text><text x="57.0" y="308.4" font-family="Inter, 'Segoe UI', Arial, Helvetica, sans-serif" font-size="10.40" font-weight="400" fill="#475569" letter-spacing="0.00" text-anchor="start" opacity="1.00">signup-verification screen.</text></g><g><rect x="398.0" y="128.0" width="224.0" height="90.0" rx="10" fill="#FFFBEB" stroke="#FDE68A" stroke-width="1" filter="url(#cardShadow)"/><rect x="398.0" y="138.0" width="3" height="70.0" rx="1.5" fill="#D97706"/><g transform="translate(411.0,140.0) scale(0.860)" fill="none" stroke="#D97706" stroke-width="1.74" stroke-linecap="round" stroke-linejoin="round"><path d="M9 1.9 L15.1 4.4 V8.9 c0 4-3.1 6.3-6.1 7.2 -3-0.9-6.1-3.2-6.1-7.2 V4.4 Z"/><path d="M6.4 8.9 L8.3 10.8 L11.8 7.2"/></g><rect x="586.0" y="138.0" width="23" height="16" rx="5" fill="#D97706" fill-opacity="0.16" stroke="#D97706" stroke-width="0.9"/><text x="597.5" y="149.5" font-family="Inter, 'Segoe UI', Arial, Helvetica, sans-serif" font-size="9.60" font-weight="700" fill="#92400E" letter-spacing="0.20" text-anchor="middle" opacity="1.00">02</text><text x="432.0" y="148.0" font-family="Inter, 'Segoe UI', Arial, Helvetica, sans-serif" font-size="8.60" font-weight="700" fill="#92400E" letter-spacing="0.80" text-anchor="start" opacity="1.00">RATE LIMIT</text><text x="432.0" y="161.5" font-family="Inter, 'Segoe UI', Arial, Helvetica, sans-serif" font-size="13.00" font-weight="650" fill="#0F172A" letter-spacing="-0.10" text-anchor="start" opacity="1.00">authLimiter</text><text x="411.0" y="179.0" font-family="'JetBrains Mono', 'Cascadia Mono', 'Liberation Mono', Consolas, monospace" font-size="10.60" font-weight="400" fill="#334155" letter-spacing="0.00" text-anchor="start" opacity="1.00">shared 20/15min budget</text><text x="411.0" y="192.0" font-family="Inter, 'Segoe UI', Arial, Helvetica, sans-serif" font-size="10.40" font-weight="400" fill="#475569" letter-spacing="0.00" text-anchor="start" opacity="1.00">Same bucket as all 5 other auth routes.</text></g><g><rect x="398.0" y="232.0" width="224.0" height="90.0" rx="10" fill="#ECFDF5" stroke="#A7F3D0" stroke-width="1" filter="url(#cardShadow)"/><rect x="398.0" y="242.0" width="3" height="70.0" rx="1.5" fill="#059669"/><g transform="translate(411.0,244.0) scale(0.860)" fill="none" stroke="#059669" stroke-width="1.74" stroke-linecap="round" stroke-linejoin="round"><ellipse cx="9" cy="4.1" rx="6" ry="2.4"/><path d="M3 4.1 V13.9 c0 1.3 2.7 2.4 6 2.4 s6-1.1 6-2.4 V4.1"/><path d="M3 9 c0 1.3 2.7 2.4 6 2.4 s6-1.1 6-2.4"/></g><rect x="586.0" y="242.0" width="23" height="16" rx="5" fill="#059669" fill-opacity="0.16" stroke="#059669" stroke-width="0.9"/><text x="597.5" y="253.5" font-family="Inter, 'Segoe UI', Arial, Helvetica, sans-serif" font-size="9.60" font-weight="700" fill="#065F46" letter-spacing="0.20" text-anchor="middle" opacity="1.00">02</text><text x="432.0" y="252.0" font-family="Inter, 'Segoe UI', Arial, Helvetica, sans-serif" font-size="8.60" font-weight="700" fill="#065F46" letter-spacing="0.80" text-anchor="start" opacity="1.00">MONGODB</text><text x="432.0" y="265.5" font-family="Inter, 'Segoe UI', Arial, Helvetica, sans-serif" font-size="13.00" font-weight="650" fill="#0F172A" letter-spacing="-0.10" text-anchor="start" opacity="1.00">findOne({ email })</text><text x="411.0" y="283.0" font-family="'JetBrains Mono', 'Cascadia Mono', 'Liberation Mono', Consolas, monospace" font-size="10.60" font-weight="400" fill="#334155" letter-spacing="0.00" text-anchor="start" opacity="1.00">404 if absent</text><text x="411.0" y="296.0" font-family="Inter, 'Segoe UI', Arial, Helvetica, sans-serif" font-size="10.40" font-weight="400" fill="#475569" letter-spacing="0.00" text-anchor="start" opacity="1.00">Same lookup shape as every other auth</text><text x="411.0" y="308.4" font-family="Inter, 'Segoe UI', Arial, Helvetica, sans-serif" font-size="10.40" font-weight="400" fill="#475569" letter-spacing="0.00" text-anchor="start" opacity="1.00">route.</text></g><g><rect x="752.0" y="128.0" width="224.0" height="90.0" rx="10" fill="#F5F3FF" stroke="#DDD6FE" stroke-width="1" filter="url(#cardShadow)"/><rect x="752.0" y="138.0" width="3" height="70.0" rx="1.5" fill="#7C3AED"/><g transform="translate(765.0,140.0) scale(0.860)" fill="none" stroke="#7C3AED" stroke-width="1.74" stroke-linecap="round" stroke-linejoin="round"><circle cx="9" cy="9" r="3.1"/><path d="M9 1.6 V3.4 M9 14.6 V16.4 M1.6 9 H3.4 M14.6 9 H16.4 M3.8 3.8 L5 5 M13 13 L14.2 14.2 M14.2 3.8 L13 5 M5 13 L3.8 14.2"/></g><rect x="940.0" y="138.0" width="23" height="16" rx="5" fill="#7C3AED" fill-opacity="0.16" stroke="#7C3AED" stroke-width="0.9"/><text x="951.5" y="149.5" font-family="Inter, 'Segoe UI', Arial, Helvetica, sans-serif" font-size="9.60" font-weight="700" fill="#5B21B6" letter-spacing="0.20" text-anchor="middle" opacity="1.00">03</text><text x="786.0" y="148.0" font-family="Inter, 'Segoe UI', Arial, Helvetica, sans-serif" font-size="8.60" font-weight="700" fill="#5B21B6" letter-spacing="0.80" text-anchor="start" opacity="1.00">GUARD</text><text x="786.0" y="161.5" font-family="Inter, 'Segoe UI', Arial, Helvetica, sans-serif" font-size="13.00" font-weight="650" fill="#0F172A" letter-spacing="-0.10" text-anchor="start" opacity="1.00">user.isVerified</text><text x="765.0" y="179.0" font-family="'JetBrains Mono', 'Cascadia Mono', 'Liberation Mono', Consolas, monospace" font-size="10.60" font-weight="400" fill="#334155" letter-spacing="0.00" text-anchor="start" opacity="1.00">400 if already verified</text><text x="765.0" y="192.0" font-family="Inter, 'Segoe UI', Arial, Helvetica, sans-serif" font-size="10.40" font-weight="400" fill="#475569" letter-spacing="0.00" text-anchor="start" opacity="1.00">Resend only makes sense</text><text x="765.0" y="204.4" font-family="Inter, 'Segoe UI', Arial, Helvetica, sans-serif" font-size="10.40" font-weight="400" fill="#475569" letter-spacing="0.00" text-anchor="start" opacity="1.00">pre-verification.</text></g><g><rect x="752.0" y="232.0" width="224.0" height="90.0" rx="10" fill="#FFFBEB" stroke="#FDE68A" stroke-width="1" filter="url(#cardShadow)"/><rect x="752.0" y="242.0" width="3" height="70.0" rx="1.5" fill="#D97706"/><g transform="translate(765.0,244.0) scale(0.860)" fill="none" stroke="#D97706" stroke-width="1.74" stroke-linecap="round" stroke-linejoin="round"><path d="M2.6 13.2 a6.6 6.6 0 1 1 12.8 0"/><path d="M9 13.2 L12.4 7.6"/><circle cx="9" cy="13.2" r="0.9"/></g><rect x="940.0" y="242.0" width="23" height="16" rx="5" fill="#D97706" fill-opacity="0.16" stroke="#D97706" stroke-width="0.9"/><text x="951.5" y="253.5" font-family="Inter, 'Segoe UI', Arial, Helvetica, sans-serif" font-size="9.60" font-weight="700" fill="#92400E" letter-spacing="0.20" text-anchor="middle" opacity="1.00">04</text><rect x="914.0" y="242.5" width="22" height="15" rx="4" fill="#FEF2F2" stroke="#DC2626" stroke-width="0.9" stroke-dasharray="2.5 2"/><text x="925.0" y="253.5" font-family="Inter, 'Segoe UI', Arial, Helvetica, sans-serif" font-size="8.60" font-weight="700" fill="#991B1B" letter-spacing="0.00" text-anchor="middle" opacity="1.00">E1</text><text x="786.0" y="252.0" font-family="Inter, 'Segoe UI', Arial, Helvetica, sans-serif" font-size="8.60" font-weight="700" fill="#92400E" letter-spacing="0.80" text-anchor="start" opacity="1.00">COOLDOWN</text><text x="786.0" y="265.5" font-family="Inter, 'Segoe UI', Arial, Helvetica, sans-serif" font-size="13.00" font-weight="650" fill="#0F172A" letter-spacing="-0.10" text-anchor="start" opacity="1.00">canResendOtp()</text><text x="765.0" y="283.0" font-family="'JetBrains Mono', 'Cascadia Mono', 'Liberation Mono', Consolas, monospace" font-size="10.60" font-weight="400" fill="#334155" letter-spacing="0.00" text-anchor="start" opacity="1.00">120 s server-enforced</text><text x="765.0" y="296.0" font-family="Inter, 'Segoe UI', Arial, Helvetica, sans-serif" font-size="10.40" font-weight="400" fill="#475569" letter-spacing="0.00" text-anchor="start" opacity="1.00">429 with the exact seconds remaining if</text><text x="765.0" y="308.4" font-family="Inter, 'Segoe UI', Arial, Helvetica, sans-serif" font-size="10.40" font-weight="400" fill="#475569" letter-spacing="0.00" text-anchor="start" opacity="1.00">too soon.</text></g><g><rect x="1106.0" y="128.0" width="224.0" height="90.0" rx="10" fill="#ECFDF5" stroke="#A7F3D0" stroke-width="1" filter="url(#cardShadow)"/><rect x="1106.0" y="138.0" width="3" height="70.0" rx="1.5" fill="#059669"/><g transform="translate(1119.0,140.0) scale(0.860)" fill="none" stroke="#059669" stroke-width="1.74" stroke-linecap="round" stroke-linejoin="round"><rect x="2.2" y="2.4" width="13.6" height="13.2" rx="1.8"/><path d="M5.6 2.4 V7.4 H12.4 V2.4"/><rect x="5.6" y="10" width="6.8" height="5.6" rx="0.8"/></g><rect x="1294.0" y="138.0" width="23" height="16" rx="5" fill="#059669" fill-opacity="0.16" stroke="#059669" stroke-width="0.9"/><text x="1305.5" y="149.5" font-family="Inter, 'Segoe UI', Arial, Helvetica, sans-serif" font-size="9.60" font-weight="700" fill="#065F46" letter-spacing="0.20" text-anchor="middle" opacity="1.00">05</text><text x="1140.0" y="148.0" font-family="Inter, 'Segoe UI', Arial, Helvetica, sans-serif" font-size="8.60" font-weight="700" fill="#065F46" letter-spacing="0.80" text-anchor="start" opacity="1.00">REISSUE</text><text x="1140.0" y="161.5" font-family="Inter, 'Segoe UI', Arial, Helvetica, sans-serif" font-size="13.00" font-weight="650" fill="#0F172A" letter-spacing="-0.10" text-anchor="start" opacity="1.00">new OTP + expiry</text><text x="1119.0" y="179.0" font-family="'JetBrains Mono', 'Cascadia Mono', 'Liberation Mono', Consolas, monospace" font-size="10.60" font-weight="400" fill="#334155" letter-spacing="0.00" text-anchor="start" opacity="1.00">lastOtpSent updated</text><text x="1119.0" y="192.0" font-family="Inter, 'Segoe UI', Arial, Helvetica, sans-serif" font-size="10.40" font-weight="400" fill="#475569" letter-spacing="0.00" text-anchor="start" opacity="1.00">verificationExpiresAt TTL is also</text><text x="1119.0" y="204.4" font-family="Inter, 'Segoe UI', Arial, Helvetica, sans-serif" font-size="10.40" font-weight="400" fill="#475569" letter-spacing="0.00" text-anchor="start" opacity="1.00">refreshed.</text></g><g><rect x="1106.0" y="232.0" width="224.0" height="90.0" rx="10" fill="#F5F3FF" stroke="#DDD6FE" stroke-width="1" filter="url(#cardShadow)"/><rect x="1106.0" y="242.0" width="3" height="70.0" rx="1.5" fill="#7C3AED"/><g transform="translate(1119.0,244.0) scale(0.860)" fill="none" stroke="#7C3AED" stroke-width="1.74" stroke-linecap="round" stroke-linejoin="round"><path d="M16.2 2 L2 8.6 L8.1 10.4 L9.9 16.4 Z"/><path d="M16.2 2 L8.1 10.4"/></g><rect x="1294.0" y="242.0" width="23" height="16" rx="5" fill="#7C3AED" fill-opacity="0.16" stroke="#7C3AED" stroke-width="0.9"/><text x="1305.5" y="253.5" font-family="Inter, 'Segoe UI', Arial, Helvetica, sans-serif" font-size="9.60" font-weight="700" fill="#5B21B6" letter-spacing="0.20" text-anchor="middle" opacity="1.00">06</text><text x="1140.0" y="252.0" font-family="Inter, 'Segoe UI', Arial, Helvetica, sans-serif" font-size="8.60" font-weight="700" fill="#5B21B6" letter-spacing="0.80" text-anchor="start" opacity="1.00">EMAIL</text><text x="1140.0" y="265.5" font-family="Inter, 'Segoe UI', Arial, Helvetica, sans-serif" font-size="13.00" font-weight="650" fill="#0F172A" letter-spacing="-0.10" text-anchor="start" opacity="1.00">sendOTPEmail()</text><text x="1119.0" y="283.0" font-family="'JetBrains Mono', 'Cascadia Mono', 'Liberation Mono', Consolas, monospace" font-size="10.60" font-weight="400" fill="#334155" letter-spacing="0.00" text-anchor="start" opacity="1.00">same Brevo helper as signup</text><text x="1119.0" y="296.0" font-family="Inter, 'Segoe UI', Arial, Helvetica, sans-serif" font-size="10.40" font-weight="400" fill="#475569" letter-spacing="0.00" text-anchor="start" opacity="1.00">Failure here throws to the catch-all 500.</text></g><g><rect x="1106.0" y="336.0" width="224.0" height="90.0" rx="10" fill="#ECFEFF" stroke="#A5F3FC" stroke-width="1" filter="url(#cardShadow)"/><rect x="1106.0" y="346.0" width="3" height="70.0" rx="1.5" fill="#0891B2"/><g transform="translate(1119.0,348.0) scale(0.860)" fill="none" stroke="#0891B2" stroke-width="1.74" stroke-linecap="round" stroke-linejoin="round"><path d="M16.2 2 L2 8.6 L8.1 10.4 L9.9 16.4 Z"/><path d="M16.2 2 L8.1 10.4"/></g><rect x="1294.0" y="346.0" width="23" height="16" rx="5" fill="#0891B2" fill-opacity="0.16" stroke="#0891B2" stroke-width="0.9"/><text x="1305.5" y="357.5" font-family="Inter, 'Segoe UI', Arial, Helvetica, sans-serif" font-size="9.60" font-weight="700" fill="#155E75" letter-spacing="0.20" text-anchor="middle" opacity="1.00">07</text><text x="1140.0" y="356.0" font-family="Inter, 'Segoe UI', Arial, Helvetica, sans-serif" font-size="8.60" font-weight="700" fill="#155E75" letter-spacing="0.80" text-anchor="start" opacity="1.00">RESPONSE</text><text x="1140.0" y="369.5" font-family="Inter, 'Segoe UI', Arial, Helvetica, sans-serif" font-size="13.00" font-weight="650" fill="#0F172A" letter-spacing="-0.10" text-anchor="start" opacity="1.00">200 OK</text><text x="1119.0" y="387.0" font-family="'JetBrains Mono', 'Cascadia Mono', 'Liberation Mono', Consolas, monospace" font-size="10.60" font-weight="400" fill="#334155" letter-spacing="0.00" text-anchor="start" opacity="1.00">cooldown value returned</text><text x="1119.0" y="400.0" font-family="Inter, 'Segoe UI', Arial, Helvetica, sans-serif" font-size="10.40" font-weight="400" fill="#475569" letter-spacing="0.00" text-anchor="start" opacity="1.00">Resets the client's own 120 s</text><text x="1119.0" y="412.4" font-family="Inter, 'Segoe UI', Arial, Helvetica, sans-serif" font-size="10.40" font-weight="400" fill="#475569" letter-spacing="0.00" text-anchor="start" opacity="1.00">countdown.</text></g><g><rect x="1106.0" y="442.0" width="530.0" height="424.0" rx="12" fill="#F0FDFA" fill-opacity="0.35" stroke="#99F6E4" stroke-width="1" stroke-dasharray="5 4"/><text x="1121.0" y="466.0" font-family="Inter, 'Segoe UI', Arial, Helvetica, sans-serif" font-size="9.40" font-weight="700" fill="#115E59" letter-spacing="0.90" text-anchor="start" opacity="1.00">SIGNUP VERIFICATION ONLY</text><text x="1121.0" y="486.0" font-family="Inter, 'Segoe UI', Arial, Helvetica, sans-serif" font-size="10.00" font-weight="400" fill="#475569" letter-spacing="0.00" text-anchor="start" opacity="1.00">Password reset re-sends never call this route — ForgotPassword.js's own &quot;Resend&quot; action calls POST</text><text x="1121.0" y="498.6" font-family="Inter, 'Segoe UI', Arial, Helvetica, sans-serif" font-size="10.00" font-weight="400" fill="#475569" letter-spacing="0.00" text-anchor="start" opacity="1.00">/auth/forgot-password again instead (see AUTH-API-05), confirmed by tracing every caller of this endpoint.</text></g><g><rect x="40.0" y="982.0" width="253.0" height="118.0" rx="10" fill="#FFFFFF" stroke="#FECACA" stroke-width="1"/><rect x="40.0" y="992.0" width="3" height="98.0" rx="1.5" fill="#DC2626"/><rect x="53.0" y="994.0" width="24" height="16" rx="5" fill="#FEF2F2" stroke="#DC2626" stroke-width="0.9"/><text x="65.0" y="1005.5" font-family="Inter, 'Segoe UI', Arial, Helvetica, sans-serif" font-size="9.60" font-weight="700" fill="#991B1B" letter-spacing="0.00" text-anchor="middle" opacity="1.00">E1</text><text x="85.0" y="1006.0" font-family="Inter, 'Segoe UI', Arial, Helvetica, sans-serif" font-size="11.40" font-weight="700" fill="#991B1B" letter-spacing="0.00" text-anchor="start" opacity="1.00">Two Independent Clocks</text><text x="53.0" y="1026.0" font-family="'JetBrains Mono', 'Cascadia Mono', 'Liberation Mono', Consolas, monospace" font-size="10.00" font-weight="400" fill="#334155" letter-spacing="0.00" text-anchor="start" opacity="1.00">from  client 120 s vs. server 120 s</text><text x="53.0" y="1042.0" font-family="Inter, 'Segoe UI', Arial, Helvetica, sans-serif" font-size="10.00" font-weight="400" fill="#475569" letter-spacing="0.00" text-anchor="start" opacity="1.00">A page refresh resets OTPForm's visible</text><text x="53.0" y="1054.2" font-family="Inter, 'Segoe UI', Arial, Helvetica, sans-serif" font-size="10.00" font-weight="400" fill="#475569" letter-spacing="0.00" text-anchor="start" opacity="1.00">countdown to 120 s even if the server's own</text><text x="53.0" y="1066.4" font-family="Inter, 'Segoe UI', Arial, Helvetica, sans-serif" font-size="10.00" font-weight="400" fill="#475569" letter-spacing="0.00" text-anchor="start" opacity="1.00">cooldown has nearly elapsed — the button can</text><text x="53.0" y="1078.6" font-family="Inter, 'Segoe UI', Arial, Helvetica, sans-serif" font-size="10.00" font-weight="400" fill="#475569" letter-spacing="0.00" text-anchor="start" opacity="1.00">appear disabled longer than actually required.</text></g><g><rect x="309.0" y="982.0" width="253.0" height="118.0" rx="10" fill="#FFFFFF" stroke="#FECACA" stroke-width="1"/><rect x="309.0" y="992.0" width="3" height="98.0" rx="1.5" fill="#DC2626"/><rect x="322.0" y="994.0" width="24" height="16" rx="5" fill="#FEF2F2" stroke="#DC2626" stroke-width="0.9"/><text x="334.0" y="1005.5" font-family="Inter, 'Segoe UI', Arial, Helvetica, sans-serif" font-size="9.60" font-weight="700" fill="#991B1B" letter-spacing="0.00" text-anchor="middle" opacity="1.00">E2</text><text x="354.0" y="1006.0" font-family="Inter, 'Segoe UI', Arial, Helvetica, sans-serif" font-size="11.40" font-weight="700" fill="#991B1B" letter-spacing="0.00" text-anchor="start" opacity="1.00">Shared Rate Budget</text><text x="322.0" y="1026.0" font-family="'JetBrains Mono', 'Cascadia Mono', 'Liberation Mono', Consolas, monospace" font-size="10.00" font-weight="400" fill="#334155" letter-spacing="0.00" text-anchor="start" opacity="1.00">from  authLimiter, one bucket</text><text x="322.0" y="1042.0" font-family="Inter, 'Segoe UI', Arial, Helvetica, sans-serif" font-size="10.00" font-weight="400" fill="#475569" letter-spacing="0.00" text-anchor="start" opacity="1.00">Counts against the same 20-per-15-min IP budget</text><text x="322.0" y="1054.2" font-family="Inter, 'Segoe UI', Arial, Helvetica, sans-serif" font-size="10.00" font-weight="400" fill="#475569" letter-spacing="0.00" text-anchor="start" opacity="1.00">as signup, login and every other OTP/reset route.</text></g><path d="M 156.0 218.0 L 156.0 232.0" fill="none" stroke="#7C3AED" stroke-width="1.80" marker-end="url(#arrow-backend)" stroke-linecap="round" opacity="1.00"/><path d="M 510.0 218.0 L 510.0 232.0" fill="none" stroke="#059669" stroke-width="1.80" marker-end="url(#arrow-database)" stroke-linecap="round" opacity="1.00"/><path d="M 864.0 218.0 L 864.0 232.0" fill="none" stroke="#D97706" stroke-width="1.80" marker-end="url(#arrow-auth)" stroke-linecap="round" opacity="1.00"/><path d="M 1218.0 218.0 L 1218.0 232.0" fill="none" stroke="#7C3AED" stroke-width="1.80" marker-end="url(#arrow-backend)" stroke-linecap="round" opacity="1.00"/><path d="M 1218.0 322.0 L 1218.0 336.0" fill="none" stroke="#0891B2" stroke-width="1.80" marker-end="url(#arrow-response)" stroke-linecap="round" opacity="1.00"/><path d="M 268.0 277.0 L 275.0 277.0 Q 282.0 277.0 282.0 270.0 L 282.0 74.0 Q 282.0 66.0 290.0 66.0 L 588.0 66.0 Q 596.0 66.0 596.0 74.0 L 596.0 128.0" fill="none" stroke="#D97706" stroke-width="2.80" marker-end="url(#arrow-auth)" stroke-linecap="round" opacity="1.00"/><path d="M 347.7 61.4 L 355.7 66.0 L 347.7 70.6 Z" fill="#D97706"/><path d="M 622.0 277.0 L 629.0 277.0 Q 636.0 277.0 636.0 270.0 L 636.0 74.0 Q 636.0 66.0 644.0 66.0 L 942.0 66.0 Q 950.0 66.0 950.0 74.0 L 950.0 128.0" fill="none" stroke="#7C3AED" stroke-width="2.80" marker-end="url(#arrow-backend)" stroke-linecap="round" opacity="1.00"/><path d="M 701.7 61.4 L 709.7 66.0 L 701.7 70.6 Z" fill="#7C3AED"/><path d="M 976.0 277.0 L 983.0 277.0 Q 990.0 277.0 990.0 270.0 L 990.0 74.0 Q 990.0 66.0 998.0 66.0 L 1296.0 66.0 Q 1304.0 66.0 1304.0 74.0 L 1304.0 128.0" fill="none" stroke="#059669" stroke-width="2.80" marker-end="url(#arrow-database)" stroke-linecap="round" opacity="1.00"/><path d="M 1055.7 61.4 L 1063.7 66.0 L 1055.7 70.6 Z" fill="#059669"/><path d="M 268.0 173.0 L 682.0 173.0 Q 690.0 173.0 690.0 181.0 L 690.0 886.0 Q 690.0 894.0 682.0 894.0 L 36.0 894.0 Q 28.0 894.0 28.0 902.0 L 28.0 1035.0 Q 28.0 1041.0 34.0 1041.0 L 40.0 1041.0" fill="none" stroke="#DC2626" stroke-width="1.20" stroke-dasharray="5 4" marker-end="url(#arrow-error)" stroke-linecap="round" opacity="0.62"/><path d="M 622.0 173.0 L 682.0 173.0 Q 690.0 173.0 690.0 181.0 L 690.0 894.0 Q 690.0 902.0 682.0 902.0 L 36.0 902.0 Q 28.0 902.0 28.0 910.0 L 28.0 1033.0 Q 28.0 1041.0 36.0 1041.0 L 309.0 1041.0" fill="none" stroke="#DC2626" stroke-width="1.20" stroke-dasharray="5 4" marker-end="url(#arrow-error)" stroke-linecap="round" opacity="0.62"/><path d="M 20 1130 H 1660" stroke="#E2E8F0" stroke-width="1"/><rect x="20.0" y="1145.0" width="11" height="11" rx="3" fill="#EFF6FF" stroke="#2563EB" stroke-width="1"/><text x="36.0" y="1154.0" font-family="Inter, 'Segoe UI', Arial, Helvetica, sans-serif" font-size="9.20" font-weight="400" fill="#475569" letter-spacing="0.00" text-anchor="start" opacity="1.00">Frontend / request layer</text><rect x="158.6" y="1145.0" width="11" height="11" rx="3" fill="#FFFBEB" stroke="#D97706" stroke-width="1"/><text x="174.6" y="1154.0" font-family="Inter, 'Segoe UI', Arial, Helvetica, sans-serif" font-size="9.20" font-weight="400" fill="#475569" letter-spacing="0.00" text-anchor="start" opacity="1.00">Authentication / security</text><rect x="300.0" y="1145.0" width="11" height="11" rx="3" fill="#F5F3FF" stroke="#7C3AED" stroke-width="1"/><text x="316.0" y="1154.0" font-family="Inter, 'Segoe UI', Arial, Helvetica, sans-serif" font-size="9.20" font-weight="400" fill="#475569" letter-spacing="0.00" text-anchor="start" opacity="1.00">Backend processing</text><rect x="421.2" y="1145.0" width="11" height="11" rx="3" fill="#ECFDF5" stroke="#059669" stroke-width="1"/><text x="437.2" y="1154.0" font-family="Inter, 'Segoe UI', Arial, Helvetica, sans-serif" font-size="9.20" font-weight="400" fill="#475569" letter-spacing="0.00" text-anchor="start" opacity="1.00">Database / cache operations</text><rect x="578.5" y="1145.0" width="11" height="11" rx="3" fill="#F0FDFA" stroke="#0D9488" stroke-width="1"/><text x="594.5" y="1154.0" font-family="Inter, 'Segoe UI', Arial, Helvetica, sans-serif" font-size="9.20" font-weight="400" fill="#475569" letter-spacing="0.00" text-anchor="start" opacity="1.00">Analytics / insights</text><rect x="699.4" y="1145.0" width="11" height="11" rx="3" fill="#ECFEFF" stroke="#0891B2" stroke-width="1"/><text x="715.4" y="1154.0" font-family="Inter, 'Segoe UI', Arial, Helvetica, sans-serif" font-size="9.20" font-weight="400" fill="#475569" letter-spacing="0.00" text-anchor="start" opacity="1.00">Response / data transfer</text><rect x="840.0" y="1145.0" width="11" height="11" rx="3" fill="#FDF2F8" stroke="#DB2777" stroke-width="1"/><text x="856.0" y="1154.0" font-family="Inter, 'Segoe UI', Arial, Helvetica, sans-serif" font-size="9.20" font-weight="400" fill="#475569" letter-spacing="0.00" text-anchor="start" opacity="1.00">UI / output</text><rect x="922.7" y="1145.0" width="11" height="11" rx="3" fill="#FEF2F2" stroke="#DC2626" stroke-width="1"/><text x="938.7" y="1154.0" font-family="Inter, 'Segoe UI', Arial, Helvetica, sans-serif" font-size="9.20" font-weight="400" fill="#475569" letter-spacing="0.00" text-anchor="start" opacity="1.00">Errors / alternate paths</text><text x="20.0" y="1172.0" font-family="Inter, 'Segoe UI', Arial, Helvetica, sans-serif" font-size="8.80" font-weight="400" fill="#64748B" letter-spacing="0.00" text-anchor="start" opacity="1.00">Heavy arrows are region hand-offs; the cyan one is the HTTP response. Light arrows are steps inside a region. Absent mechanisms — a refresh token, a server session, frontend JWT decoding — are named in a note, never drawn as implemented steps.</text><text x="20.0" y="1184.0" font-family="Inter, 'Segoe UI', Arial, Helvetica, sans-serif" font-size="8.80" font-weight="400" fill="#64748B" letter-spacing="0.00" text-anchor="start" opacity="1.00">A fresh OTP fully replaces the previous one — the old code stops working the moment this succeeds, not just after its original expiry.</text></svg>